<svg xmlns="http://www.w3.org/2000/svg" xmlns:xlink="http://www.w3.org/1999/xlink" width="131.034" height="71.028" viewBox="0 0 131.034 71.028">
  <defs>
    <clipPath id="clip-path">
      <rect id="Rectangle_166" data-name="Rectangle 166" width="131.034" height="71.028" fill="#fff"/>
    </clipPath>
  </defs>
  <g id="Groupe_432" data-name="Groupe 432" clip-path="url(#clip-path)">
    <path id="Tracé_4552" data-name="Tracé 4552" d="M145.716,98.465H164.8v15.409H144.334c-10.345,0-17.97-5.419-17.97-12.57,0-7.225,7.625-12.091,17.97-12.091h21.359l-5.975,6.414H144.334c-4.994,0-8.784,2.507-8.784,6.008,0,3.576,3.656,5.9,8.784,5.9h11.281v-3.4H140.187Z" transform="translate(-75.247 -53.609)" fill="#fff"/>
    <path id="Tracé_4553" data-name="Tracé 4553" d="M14.937,113.263l5.574-6.341H28c1.784,0,3.879,0,5.306.074-.8-.885-2.051-2.4-3.032-3.576L24.926,96.9l-14,16.368H0l19.129-22.3A7.539,7.539,0,0,1,25.1,88.2a7.3,7.3,0,0,1,5.885,2.765l18.639,22.3Z" transform="translate(0 -52.998)" fill="#fff"/>
    <path id="Tracé_4554" data-name="Tracé 4554" d="M276.332,107.533l-5.975,6.341H244V89.212h9.23v18.321Z" transform="translate(-145.299 -53.609)" fill="#fff"/>
    <path id="Tracé_4555" data-name="Tracé 4555" d="M4.128,168.343H1.913l-.567,1.234H.491l2.58-5.412,2.455,5.412H4.672Zm-.318-.736-.769-1.733-.8,1.733Z" transform="translate(-0.292 -98.649)" fill="#fff"/>
    <path id="Tracé_4556" data-name="Tracé 4556" d="M21.7,165.65H19.9v1.3h1.741v.736H19.9v2.346h-.792v-5.114h2.6Z" transform="translate(-11.379 -99.1)" fill="#fff"/>
    <path id="Tracé_4557" data-name="Tracé 4557" d="M33.234,164.914a2.347,2.347,0,0,1,1.368.3,1.47,1.47,0,0,1-.536,2.63l1.616,2.185h-.955l-1.485-2.093H33.1v2.093h-.792v-5.114ZM33.1,167.26h.249c.218,0,1.1-.023,1.1-.836,0-.72-.692-.789-1.08-.789H33.1Z" transform="translate(-19.239 -99.099)" fill="#fff"/>
    <rect id="Rectangle_163" data-name="Rectangle 163" width="0.792" height="5.113" transform="translate(19.062 65.815)" fill="#fff"/>
    <path id="Tracé_4558" data-name="Tracé 4558" d="M60.182,165.972a2.038,2.038,0,0,0-1.407-.568,1.838,1.838,0,0,0-1.888,1.948,1.858,1.858,0,0,0,1.9,1.917,2.07,2.07,0,0,0,1.4-.591v.927a2.857,2.857,0,0,1-1.422.383,2.614,2.614,0,0,1-1.834-.705,2.491,2.491,0,0,1-.831-1.932,2.661,2.661,0,0,1,.831-2,2.589,2.589,0,0,1,1.873-.667,2.488,2.488,0,0,1,1.383.368Z" transform="translate(-33.403 -98.961)" fill="#fff"/>
    <path id="Tracé_4559" data-name="Tracé 4559" d="M75.161,168.343H72.946l-.568,1.234h-.855l2.58-5.412,2.455,5.412H75.7Zm-.318-.736-.769-1.733-.8,1.733Z" transform="translate(-42.591 -98.649)" fill="#fff"/>
    <path id="Tracé_4560" data-name="Tracé 4560" d="M101.486,167.229h2.137v.038a2.772,2.772,0,0,1-.769,2.07,2.444,2.444,0,0,1-1.764.652,2.275,2.275,0,0,1-1.764-.7,2.8,2.8,0,0,1-.016-3.841,2.783,2.783,0,0,1,1.951-.767,2.836,2.836,0,0,1,1.352.322,2.338,2.338,0,0,1,.839.767l-.629.437a2.11,2.11,0,0,0-.637-.583,1.772,1.772,0,0,0-.917-.222,1.884,1.884,0,0,0-1.368.529,2.1,2.1,0,0,0-.015,2.822,1.7,1.7,0,0,0,1.3.514,1.569,1.569,0,0,0,1.158-.452,1.364,1.364,0,0,0,.435-.866h-1.29Z" transform="translate(-58.688 -98.961)" fill="#fff"/>
    <path id="Tracé_4561" data-name="Tracé 4561" d="M118.888,164.914v4.378h1.523v.736H118.1v-5.113Z" transform="translate(-70.323 -99.1)" fill="#fff"/>
    <path id="Tracé_4562" data-name="Tracé 4562" d="M134.421,167.336a2.7,2.7,0,1,1-2.7-2.652,2.612,2.612,0,0,1,2.7,2.652m-.793,0a1.9,1.9,0,1,0-1.9,1.932,1.842,1.842,0,0,0,1.9-1.932" transform="translate(-76.832 -98.961)" fill="#fff"/>
    <path id="Tracé_4563" data-name="Tracé 4563" d="M150.16,164.914a1.93,1.93,0,0,1,1.43.4,1.3,1.3,0,0,1,.412,1.012,1.1,1.1,0,0,1-.156.606.853.853,0,0,1-.388.352,1.428,1.428,0,0,1,.669.368,1.32,1.32,0,0,1,.342.958,1.239,1.239,0,0,1-.342.92,2.027,2.027,0,0,1-1.453.5h-1.3v-5.114Zm.008,2.2h.241a.919.919,0,0,0,.645-.2.769.769,0,0,0,.2-.583.628.628,0,0,0-.186-.491.859.859,0,0,0-.629-.192h-.272Zm0,2.177h.482a1.384,1.384,0,0,0,.785-.2.73.73,0,0,0,.256-.568.764.764,0,0,0-.21-.537,1.151,1.151,0,0,0-.816-.23h-.5Z" transform="translate(-88.949 -99.099)" fill="#fff"/>
    <path id="Tracé_4564" data-name="Tracé 4564" d="M166.211,168.343H164l-.568,1.234h-.855l2.58-5.412,2.455,5.412h-.855Zm-.318-.736-.769-1.733-.8,1.733Z" transform="translate(-96.809 -98.649)" fill="#fff"/>
    <path id="Tracé_4565" data-name="Tracé 4565" d="M181.984,164.914v4.378h1.523v.736h-2.316v-5.113Z" transform="translate(-107.895 -99.1)" fill="#fff"/>
    <path id="Tracé_4566" data-name="Tracé 4566" d="M203.138,164.914v4.378h1.523v.736h-2.316v-5.113Z" transform="translate(-120.492 -99.1)" fill="#fff"/>
    <path id="Tracé_4567" data-name="Tracé 4567" d="M218.671,167.336a2.7,2.7,0,1,1-2.7-2.652,2.612,2.612,0,0,1,2.7,2.652m-.793,0a1.9,1.9,0,1,0-1.9,1.932,1.842,1.842,0,0,0,1.9-1.932" transform="translate(-127.001 -98.961)" fill="#fff"/>
    <path id="Tracé_4568" data-name="Tracé 4568" d="M235.94,167.229h2.137v.038a2.772,2.772,0,0,1-.769,2.07,2.444,2.444,0,0,1-1.764.652,2.275,2.275,0,0,1-1.764-.7,2.8,2.8,0,0,1-.016-3.841,2.783,2.783,0,0,1,1.951-.767,2.836,2.836,0,0,1,1.352.322,2.338,2.338,0,0,1,.839.767l-.629.437a2.11,2.11,0,0,0-.637-.583,1.772,1.772,0,0,0-.917-.222,1.884,1.884,0,0,0-1.368.529,2.1,2.1,0,0,0-.015,2.822,1.7,1.7,0,0,0,1.3.514,1.569,1.569,0,0,0,1.158-.452,1.364,1.364,0,0,0,.435-.866h-1.29Z" transform="translate(-138.752 -98.961)" fill="#fff"/>
    <rect id="Rectangle_164" data-name="Rectangle 164" width="0.792" height="5.113" transform="translate(102.163 65.815)" fill="#fff"/>
    <path id="Tracé_4569" data-name="Tracé 4569" d="M263.918,165.91a.813.813,0,0,0-.233-.322.834.834,0,0,0-.559-.184c-.482,0-.731.284-.731.614,0,.153.054.421.559.621l.521.207c.956.384,1.22.92,1.22,1.5a1.587,1.587,0,0,1-1.671,1.641,1.527,1.527,0,0,1-1.22-.514,1.646,1.646,0,0,1-.435-1l.785-.168a1.092,1.092,0,0,0,.218.651.868.868,0,0,0,1.531-.552c0-.521-.4-.736-.746-.874l-.5-.207a1.448,1.448,0,0,1-1.057-1.3,1.392,1.392,0,0,1,1.515-1.349,1.542,1.542,0,0,1,1.042.345,1.746,1.746,0,0,1,.4.514Z" transform="translate(-155.639 -98.961)" fill="#fff"/>
    <path id="Tracé_4570" data-name="Tracé 4570" d="M276.858,165.65v4.378h-.792V165.65h-1.189v-.736h3.17v.736Z" transform="translate(-163.682 -99.1)" fill="#fff"/>
    <rect id="Rectangle_165" data-name="Rectangle 165" width="0.792" height="5.113" transform="translate(116.907 65.815)" fill="#fff"/>
    <path id="Tracé_4571" data-name="Tracé 4571" d="M302.058,165.972a2.038,2.038,0,0,0-1.407-.568,1.838,1.838,0,0,0-1.888,1.948,1.858,1.858,0,0,0,1.9,1.917,2.07,2.07,0,0,0,1.4-.591v.927a2.857,2.857,0,0,1-1.422.383,2.614,2.614,0,0,1-1.834-.705,2.491,2.491,0,0,1-.831-1.932,2.661,2.661,0,0,1,.831-2,2.59,2.59,0,0,1,1.873-.667,2.488,2.488,0,0,1,1.383.368Z" transform="translate(-177.434 -98.961)" fill="#fff"/>
    <path id="Tracé_4572" data-name="Tracé 4572" d="M316.831,165.91a.813.813,0,0,0-.233-.322.834.834,0,0,0-.559-.184c-.482,0-.731.284-.731.614,0,.153.054.421.559.621l.521.207c.956.384,1.22.92,1.22,1.5a1.587,1.587,0,0,1-1.671,1.641,1.528,1.528,0,0,1-1.22-.514,1.648,1.648,0,0,1-.435-1l.785-.168a1.092,1.092,0,0,0,.218.651.868.868,0,0,0,1.531-.552c0-.521-.4-.736-.746-.874l-.5-.207a1.448,1.448,0,0,1-1.057-1.3,1.392,1.392,0,0,1,1.515-1.349,1.542,1.542,0,0,1,1.042.345,1.747,1.747,0,0,1,.4.514Z" transform="translate(-187.147 -98.961)" fill="#fff"/>
    <path id="Tracé_4573" data-name="Tracé 4573" d="M127.86,5.846c-.058.129-.112.258-.168.387l.671.079a1.117,1.117,0,0,0,.016-.4c-.086-.226-.229-.419-.316-.64a2.482,2.482,0,0,1-.084-.477c-.382.37-.4.4-.036.94a.773.773,0,0,0-.083.116m-13.226,6.8q.362.271.727.551l.084-.161q-.385-.244-.767-.477l-.044.087m11.974-8.837a1.267,1.267,0,0,0,.351-.14c.056-.034.1-.137.144-.209-.054-.029-.1-.085-.162-.08-.232.021-.465.061-.7.1-.078.39.131.39.37.331m.375,2.369a.538.538,0,0,0,.489-.558l-.089-.1q-.245.271-.5.542l.1.115m7.529-3.568c-.259-.476-.223-.59.111-.875-.424-.067-.534.069-.52.638l.409.237M114.466,15.362c.038,0,.076.007.114.009-.036-.048-.069-.05-.114-.009m32.717-7.354.047-.069a5.706,5.706,0,0,0-.787-.6l.74.664m1.385,1.172-.049-.089c-.177-.086-.354-.171-.593-.29.106.184.189.332.27.48.124-.035.248-.069.372-.1M116,13.3a1.34,1.34,0,0,0-.277,0,.839.839,0,0,0-.04.13c.08.007.159.02.241.021a.732.732,0,0,0,.158-.041c-.04-.056-.055-.106-.082-.11m32.106.244c.041.269.063.459.083.649.136-.195.274-.384-.083-.649M148,17.175c-.032.268-.067.5-.106.741l.053,0c.047-.12.093-.238.156-.411.083.162.137.268.216.426.008-.279.006-.486,0-.706l-.32-.045m.672-1.68c.095.1.191.2.316.336.062-.17.12-.334.174-.5l-.1-.038-.389.2M130.736,0C118.639,0,108.8,6.721,108.8,14.983s9.842,14.985,21.939,14.985,21.938-6.722,21.938-14.985S142.832,0,130.736,0m-10.348,3.32q.228-.088.458-.173c-.009.1-.018.193-.028.328-.181.144-.383.3-.611.483.064-.239.12-.432.182-.638m-.275.108a1.317,1.317,0,0,0-.156.212.91.91,0,0,1-.359.293c-.3.06-.571.071-.854.107l-.026,0q.677-.326,1.395-.617m-1.5.668a1.2,1.2,0,0,1-.326.163c.108-.055.216-.11.326-.163m32.155,13.127c-.265-.006-.574.265-.851.19l-.023.063c.8.405.806.392.6.749.034.013.066.027.1.04a10.5,10.5,0,0,1-.78,1.619.714.714,0,0,1-.282-.327c-.023-.065.2-.3.323-.48a1.047,1.047,0,0,0-1.182.5c-.036.045-.18.1-.2.074-.195-.231-.417.065-.651.259a5.171,5.171,0,0,1-1.335,1.022c-.871.324-.887.631-1.328,1.493-.2.4-.389.8-.6,1.194-.067.068-.039.126.017.1a8.444,8.444,0,0,0,1.17-.542c.849-.524,1.331-.566,1.345-.077-3.737,3.279-9.674,5.4-16.348,5.4A28.854,28.854,0,0,1,120.79,26.8a.954.954,0,0,0-.069-.08c-.158-.159-.249-.253-.235-.423a.7.7,0,0,0-.3-.619.713.713,0,0,1-.086-.15l.2-.053c-.051-.119-.094-.219-.135-.314.508-.135.5-.215-.155-.972a1.58,1.58,0,0,0,.324.132c.086.01.211.007.214-.065a3.384,3.384,0,0,0,.006-1.227c-.207-.691.034-.854.377-1.012a.313.313,0,0,0,.177-.271,4.321,4.321,0,0,0-.108-1.1,1.848,1.848,0,0,1,.061-1.216,1.1,1.1,0,0,0,.087-.484.958.958,0,0,0-.224-.508c-.612-.564-1.3-.584-1.9-1.006a1.827,1.827,0,0,0-.529-.187c-.059-.683-.479-1.248-.816-1.231-.25.012-.395-.167-.58-.371a2.823,2.823,0,0,0-.7-.566,4.579,4.579,0,0,0-.628-.179c-.151-.062-.225-.029-.249.168-.009.072-.022.144-.033.215l-.062-.008a1.7,1.7,0,0,1-.072-.545c-.2.2-.287.361-.409.5a.38.38,0,0,1-.214.139,1.09,1.09,0,0,1-.158,0,1.585,1.585,0,0,1,.135.269,1.19,1.19,0,0,1-.021,1.161c-.246.381.072.909.032,1.327,0,.03.042.091.07.132.237.352.5.693.735,1.066a3.7,3.7,0,0,0,1.084,1.155,1.81,1.81,0,0,1,.524.683c.432,1.052.887,2.109,1.389,3.167a5.331,5.331,0,0,0,.915,1.369.474.474,0,0,1,.095.148,1.888,1.888,0,0,0,.276.569c-5.726-2.4-9.536-6.627-9.536-11.432a9.25,9.25,0,0,1,.667-3.428,1.815,1.815,0,0,0,.1.964,2.249,2.249,0,0,0,.033-.457,4.01,4.01,0,0,1,0-.554c.006-.055.116-.138.179-.208.033.052.087.094.1.159.055.357.123.72.183,1.1.032.2.023.43.048.645.011.1.015.237.073.279.314.229.573.589,1.031.484.082-.018.169.082.246.142a4.475,4.475,0,0,1,.394.33c.114.11.273.206.312.368a1.4,1.4,0,0,0,.682.743,1.409,1.409,0,0,1,.147-.187q-.078-.008-.157-.022a.406.406,0,0,1-.219-.115.762.762,0,0,1-.051-.836c.1-.271.019-.358-.157-.364-.13,0-.263,0-.42.006.081-.2.149-.367.223-.532s.151-.32.239-.5c-.22-.055-.331.089-.479.269a.847.847,0,0,1-.538.293c-.1.007-.212-.2-.257-.35-.108-.363.142-.714.3-1.072a1.226,1.226,0,0,1,1-.758c.118.006.274-.107.4-.115A1.779,1.779,0,0,1,115,11.3c.054.017-.013.29-.017.442,0,.125.006.246.011.369l.092-.019a2.7,2.7,0,0,0,.129-.44,1.436,1.436,0,0,1,.7-1.116c.108-.071.215-.165.324-.225a.879.879,0,0,0,.436-.567.682.682,0,0,1,.2-.287c.33-.247.667-.471,1-.715.041-.03.076-.146.115-.17a10.5,10.5,0,0,1,.995-.579c.147-.07.28,0,.421.01l.042-.109c-.3-.05-.3-.069,0-.683l-.788.447c.388-.364.792-.769,1.152-.734a2.036,2.036,0,0,0,1-.376c.24-.128.341-.374.246-.488-.15-.182-.133-.417.019-.765a.7.7,0,0,0,.027-.227,1.061,1.061,0,0,0-.117.066c-.452.345-.455.344-.322-.151a.222.222,0,0,0-.008-.113c-.055-.264-.414-.169-.692.186a6.367,6.367,0,0,1-.529.711,12.566,12.566,0,0,0-1.27,1.269l-.069-.043c.1-.237.2-.475.289-.675-.182-.131-.347-.249-.515-.368a1.133,1.133,0,0,1,.58-.758c.582-.39,1.159-.757,1.733-1.133a.257.257,0,0,1,.11-.034,1.356,1.356,0,0,0,.81-.68c.112-.029.256-.109.318-.071.089.056.121.2.18.3a2.875,2.875,0,0,1-.335.341c-.2.142-.4.243-.509.3.074.07.181.162.282.268a.872.872,0,0,0,.578-.153.605.605,0,0,0,.086-.214,1.352,1.352,0,0,0,.017-.218c.3-.312.253.332.621-.231-.051-.082-.106-.17-.165-.271l.188-.249c0-.034,0-.063-.011-.067-.177-.077-.392-.1-.51-.232a.34.34,0,0,0-.041-.04q1.067-.344,2.2-.606c-.006.168-.042.382-.044.554l-.306.176c0,.025-.009.049-.014.074l.285-.033a2.5,2.5,0,0,1-.193.183,1.365,1.365,0,0,0-.712,1.178c-.046.325.18.253.3.336.04.028.24-.176.362-.287a6.156,6.156,0,0,1,.822-.755c.523-.3,1.044-.471,1.56-.716a2.165,2.165,0,0,0,.386-.324l-.012-.085.275.007c-.026-.106-.042-.176-.055-.23a2.5,2.5,0,0,0,.557-.549c.017-.031.033-.059.049-.088a30.827,30.827,0,0,1,3.474-.2,30.1,30.1,0,0,1,6.155.626,3.208,3.208,0,0,0-.37.229.019.019,0,0,0-.011.019c.074.378-.233.2-.4.267l.429.506c.212.249.219.384.1.4-.3-.391-.568-.747-.842-1.081-.039-.047-.192-.034-.208.032a.685.685,0,0,0,.121.351,1.621,1.621,0,0,0,.28.27c.01.042.019.083.029.125-.6-.472-.891-.164-1.308-.126-.166.016-.365-.02-.495.068-.159.108-.27.31-.524-.114l.07.284c-.117.056-.284.057-.3.156-.049.3-.28.266-.453.235-.112-.02-.251-.279-.415-.48.306.034.527.06.747.088a3.029,3.029,0,0,0-1.838-.822,8.219,8.219,0,0,0-1.049.636,7.891,7.891,0,0,0-.96.876.982.982,0,0,0-.151.571c0,.069.231.227.28.2.426-.276.538.026.669.369a1.719,1.719,0,0,0,.217.3c.215-.334.386-.622.548-.909l-.106-.037a1.789,1.789,0,0,1,.028-.559,1.376,1.376,0,0,1,.371-.5c.093-.08.251-.047.378-.065l.032.138a1.444,1.444,0,0,1-.178.192.384.384,0,0,0-.1.543c.083.122.292.156.445.186a1.836,1.836,0,0,0,.424-.009l.036.163-.534.119.085.386-.354-.026c-.061.518-.061.513-.523.544a1.154,1.154,0,0,0-.288.078c-.548.191-.859-.008-.869-.731-.11.193-.235.309-.215.38.1.372-.069.5-.385.535a.288.288,0,0,0-.181.078,3,3,0,0,1-1.633.969,1.778,1.778,0,0,0,.186.146.487.487,0,0,1,.181.66c-.106.3-.349.239-.557.245-.174.006-.345-.018-.516,0-.093.012-.25.081-.269.143-.117.384-.2.774-.3,1.15a3,3,0,0,1,.391.1c.26.113.93.005,1.067-.258a2.558,2.558,0,0,1,.791-.919,4.126,4.126,0,0,1,1.29-.427.22.22,0,0,1,.079.036c.361.3.718.606,1.087.914.033.028-.028.313,0,.346.013.018.115-.154.131-.223s.019-.154.036-.2c.011-.034.21.015.232,0s-.146-.083-.141-.1a9.257,9.257,0,0,1-.749-.643c-.082-.085-.066-.253-.1-.384a1.874,1.874,0,0,1,.437.136,2.43,2.43,0,0,1,.449.376,4.333,4.333,0,0,1,.448.516c.187.262.352.541.53.813l.129-.018c-.02-.212-.041-.424-.072-.736.167-.021.376-.04.577-.073.151-.026.229-.051.226-.289a1.513,1.513,0,0,1,.285-.9c.128-.162.379.047.519.288.013.022.146-.022.223-.034-.231-.56.262-.249.411-.364-.019.143-.039.285-.059.42a6.894,6.894,0,0,1,.576.386,2.032,2.032,0,0,1,.271.342A1.27,1.27,0,0,1,135,8.5a.417.417,0,0,1-.29-.019,1.413,1.413,0,0,0-1.472.115c-.108.051-.261.227-.232.289.084.185.231.434.389.488a2.306,2.306,0,0,0,.9.094c.427-.033.546.069.489.5a1.8,1.8,0,0,1-.087.458c-.043.1-.152.241-.24.232a4.965,4.965,0,0,1-2-.305c-.256-.133-.478-.109-.521.194-.037.258-.195.265-.421.176-.465-.184-.944-.353-1.4-.562a.417.417,0,0,1-.192-.353c.035-.4-.035-.482-.49-.465a2.908,2.908,0,0,0-.464.032,11.1,11.1,0,0,1-1.615.335,1.419,1.419,0,0,0-1.138.415c-.15.168-.28.354-.416.533s-.234.435-.4.516a2.371,2.371,0,0,0-1.142,1.215,5.958,5.958,0,0,0-.483,1.971c-.022.349.345.688.626,1.011.225.259.511.476.752.729.346.362.68.189,1.04.1a.387.387,0,0,1,.185,0,1.776,1.776,0,0,0,1.145-.154.9.9,0,0,1,1.092.182.659.659,0,0,0,.4.131c.538.019.8.194.66.582a1.246,1.246,0,0,0,.361,1.316,1.742,1.742,0,0,1,.318,2.114,1.2,1.2,0,0,0-.015,1.19,7.272,7.272,0,0,1,.369,1.2c.087.3.191.585.275.88s.177.606.234.916c.051.279.146.4.424.267a1.093,1.093,0,0,1,.464-.113,1.145,1.145,0,0,0,.907-.453,2.947,2.947,0,0,0,.8-1.195.619.619,0,0,1,.259-.3.638.638,0,0,0,.352-.7.6.6,0,0,1,.275-.645,5.553,5.553,0,0,0,.544-.4,1.307,1.307,0,0,0,.406-.509,3.854,3.854,0,0,0,.07-1.11,1.788,1.788,0,0,1,.407-1.462,12.12,12.12,0,0,1,1.019-.979,3.815,3.815,0,0,0,1.27-2.1,5.474,5.474,0,0,1-.911.219.627.627,0,0,1-.464-.2c-.159-.179-.346-.425-.525-.639a6.847,6.847,0,0,1-.5-.578c-.242-.365-.444-.753-.678-1.126-.281-.446-.577-.884-.849-1.3l.407-.09c.379.545.756,1.147,1.191,1.7a4.293,4.293,0,0,1,.927,1.523.388.388,0,0,0,.29.18,3.942,3.942,0,0,0,1.767-1.2,1.247,1.247,0,0,0,.228-.739c0-.086-.3-.257-.449-.4a3.643,3.643,0,0,1-.269-.328c-.115.255-.289.482-.576.259a4.885,4.885,0,0,1-.763-.846c-.074-.094-.063-.26-.091-.392.133.051.3.064.389.162.3.349.593.627.978.5a.152.152,0,0,1,.135.028,1.2,1.2,0,0,0,1.2.347c.425-.062.722.287.969.605.2.255.33.4.511.324a9.944,9.944,0,0,1,1.076,2.695.952.952,0,0,0,.4-.962,1.019,1.019,0,0,1,.169-.941c.281-.4.388-.991.938-1.063.287.428.582.886.865,1.351l.289-.163a6.441,6.441,0,0,1,.31,1.452,1.581,1.581,0,0,0,.019.275c.059.233.138.452.182.686.049.261.093.506.337.583-.025-.656-.034-.656-.276-1.011a1.453,1.453,0,0,1-.045-1.314c.271.279.5.549.718.814.574-.544.553-.8,0-1.446-.063-.073-.119-.155-.182-.229a.438.438,0,0,1-.044-.6c.121-.179.256-.167.393.035a3.826,3.826,0,0,1,.469-.3c.7-.325.691-1.235-.119-2.006-.286-.272-.49-.49-.305-.782a.768.768,0,0,1-.744-.343c.181-.444.177-.439.464-.086.155-.077.3-.1.549.217a10.946,10.946,0,0,0,.773.8c.189-.049.135-.208-.053-.409a1.833,1.833,0,0,0-.335-.3c-.36-.222-.223-.426-.275-.613-.029-.1.106-.158.167-.232.044-.054.13-.083.129-.162a2.613,2.613,0,0,0-.981-1.555,2.126,2.126,0,0,0-.5-.269c-.191-.085-.371-.144-.552-.212-.3-.742-.3-.811.219-.71.217.043.438.089.666.137-.044-.1-.077-.177-.1-.232,3.256,2.4,5.24,5.562,5.24,9.028a9.109,9.109,0,0,1-.285,2.252,1.162,1.162,0,0,0-.145-.014m-2.732-1.214-.178-.221a7.1,7.1,0,0,1-.988.929.407.407,0,0,0-.216.514.537.537,0,0,0,.658.473c.111-.036.224-.312.333-.478a.806.806,0,0,0,.076-.129,2.641,2.641,0,0,0,.162-.431,5.47,5.47,0,0,0,.081-.624l.072-.032m.961-5.86a2.166,2.166,0,0,0-.143-.269c-.1-.125-.226-.239-.342-.359l-.079.014c.676.829,0,.806-.25,1.07l.085.062a.814.814,0,0,1,.362-.026c.506.17.665,0,.367-.493m-3.045,7.435a.87.87,0,0,0-.134-.381c-.238-.36-.5-.713-.761-1.072-.011-.016-.054.009-.18.036.523.584.41,1.6,1,1.993a1.489,1.489,0,0,0,.074-.576m-9.81,3.648a4.655,4.655,0,0,0-.29.811c-.046.245-.089.625.022.694.218.134.388-.194.516-.448.275-.546.56-1.087.816-1.635a2.517,2.517,0,0,0,.126-.536c-.376.293-.7.526-1,.784a.887.887,0,0,0-.189.33m9.718-2.77q.539.107,1.085.2l.061-.137q-.54-.117-1.072-.244l-.074.177m-25.771-11.1c.235.036.414.065.6.1l.091-.075c-.048-.187-.093-.373-.141-.583l-.547.563M129.7,8.869c.078.15.075-.078.171.013.033-.172.08-.375-.052-.439-.038.044-.165.158-.149.03-.039.1.007.1.038.168,0,.089-.016.13-.008.227m.849.4c.34.21.116-.042.286-.22-.133.018-.264.089-.384.019-.256.044-.041.126.1.2m-.8-.987c-.073.046.038.017-.016.063.069.013-.023.047.067.063.048.077.1-.309.042-.321-.006.084-.2.113-.093.2" transform="translate(-64.786 0.001)" fill="#fff" fill-rule="evenodd"/>
  </g>
</svg>
